<svg width="118" height="42" viewBox="0 0 118 42" fill="none" xmlns="http://www.w3.org/2000/svg">
<g clip-path="url(#clip0_2_13378)">
<path d="M9.875 17.8421V16.7231C9.48557 16.6698 9.09306 16.6421 8.7 16.6401C3.903 16.6341 1.66478e-07 20.5401 1.66478e-07 25.3481C-0.0002738 26.7487 0.337598 28.1287 0.9849 29.3707C1.6322 30.6127 2.5698 31.6801 3.718 32.4821C2.21434 30.873 1.37856 28.7525 1.38 26.5501C1.38 21.8131 5.174 17.9521 9.875 17.8431" fill="#25F4EE"/>
<path d="M10.087 30.5259C12.227 30.5259 13.977 28.8189 14.053 26.6959L14.06 7.72788H17.522C17.4511 7.3311 17.4147 6.92894 17.413 6.52588H12.686L12.68 25.4939C12.6413 26.521 12.2067 27.4933 11.4672 28.2072C10.7278 28.9211 9.74083 29.3213 8.713 29.3239C8.06913 29.3253 7.43493 29.1672 6.867 28.8639C7.23216 29.3778 7.715 29.7968 8.27518 30.0859C8.83536 30.375 9.45661 30.5259 10.087 30.5259ZM23.992 14.1659V13.1109C22.7186 13.114 21.4724 12.7429 20.408 12.0439C21.3409 13.1212 22.5988 13.866 23.992 14.1659Z" fill="#25F4EE"/>
<path d="M20.41 12.044C19.3651 10.8492 18.7904 9.31525 18.793 7.72803H17.528C17.6895 8.60555 18.0282 9.4409 18.5236 10.183C19.019 10.9251 19.6615 11.5584 20.41 12.044ZM8.707 21.365C7.65317 21.3666 6.64299 21.7861 5.89801 22.5314C5.15302 23.2768 4.73406 24.2872 4.733 25.341C4.733 26.869 5.603 28.199 6.867 28.864C6.37636 28.1897 6.11236 27.377 6.113 26.543C6.11406 25.4894 6.53289 24.4791 7.27765 23.7338C8.02242 22.9885 9.03235 22.5689 10.086 22.567C10.496 22.567 10.891 22.637 11.262 22.752V17.919C10.8722 17.8657 10.4794 17.838 10.086 17.836C10.016 17.836 9.952 17.842 9.882 17.842V21.55C9.50174 21.4301 9.1057 21.3678 8.707 21.365Z" fill="#FE2C55"/>
<path d="M23.992 14.166V17.842C21.6313 17.8444 19.3297 17.1041 17.413 15.726V25.348C17.413 30.148 13.51 34.061 8.70701 34.061C6.92073 34.0613 5.17797 33.5098 3.71701 32.482C4.53063 33.3585 5.51622 34.0578 6.61222 34.5363C7.70823 35.0148 8.89111 35.2622 10.087 35.263C14.884 35.263 18.793 31.357 18.793 26.549V16.928C20.7097 18.3061 23.0113 19.0464 25.372 19.044V14.314C24.8933 14.3127 24.4333 14.2633 23.992 14.166Z" fill="#FE2C55"/>
<path d="M17.413 25.348V15.726C19.33 17.1044 21.632 17.8446 23.993 17.842V14.166C22.5998 13.8661 21.3419 13.1213 20.409 12.044C19.661 11.5572 19.0194 10.9237 18.5232 10.1819C18.027 9.44003 17.6864 8.60526 17.522 7.72803H14.059L14.053 26.696C14.0143 27.7231 13.5797 28.6954 12.8402 29.4093C12.1008 30.1232 11.1138 30.5234 10.086 30.526C9.45587 30.5243 8.83512 30.3733 8.27457 30.0855C7.71402 29.7976 7.22961 29.3811 6.861 28.87C6.21852 28.5324 5.68029 28.026 5.30426 27.4052C4.92823 26.7844 4.72865 26.0728 4.72701 25.347C4.72833 24.2935 5.14727 23.2836 5.89201 22.5384C6.63675 21.7933 7.64652 21.3739 8.7 21.372C9.109 21.372 9.505 21.442 9.87601 21.557V17.849C5.17401 17.952 1.38 21.813 1.38 26.55C1.38 28.84 2.268 30.923 3.718 32.483C5.17857 33.511 6.92096 34.0628 8.707 34.063C13.504 34.063 17.413 30.15 17.413 25.348ZM30.048 14.179H44.823L43.468 18.411H39.636V34.055H34.858V18.41L30.054 18.416L30.048 14.179ZM69.032 14.179H84.152L82.798 18.411H78.626V34.055H73.842V18.41L69.039 18.416L69.032 14.179ZM45.73 20.502H50.463V34.055H45.755L45.73 20.502ZM52.347 14.128H57.08V23.385L61.769 18.775H67.416L61.482 24.535L68.125 34.055H62.912L58.479 27.457L57.074 28.819V34.055H52.341V14.128H52.347ZM102.49 14.128H107.224V23.385L111.912 18.775H117.559L111.625 24.535L118.268 34.055H113.062L108.629 27.457L107.224 28.819V34.055H102.49V14.128ZM48.094 18.954C48.4073 18.9539 48.7174 18.8921 49.0068 18.7721C49.2962 18.6521 49.5591 18.4762 49.7805 18.2546C50.0019 18.033 50.1775 17.77 50.2973 17.4805C50.4171 17.191 50.4786 16.8808 50.4785 16.5675C50.4784 16.2543 50.4165 15.9441 50.2965 15.6547C50.1765 15.3653 50.0007 15.1024 49.7791 14.881C49.5575 14.6596 49.2944 14.484 49.005 14.3642C48.7155 14.2445 48.4053 14.1829 48.092 14.183C47.4593 14.1833 46.8527 14.4349 46.4055 14.8824C45.9583 15.33 45.7072 15.9369 45.7075 16.5695C45.7078 17.2022 45.9594 17.8089 46.4069 18.256C46.8545 18.7032 47.4613 18.9543 48.094 18.954Z" fill="white"/>
<path d="M83.545 25.9421C83.5445 23.9011 84.3135 21.935 85.6987 20.436C87.0839 18.937 88.9833 18.0154 91.018 17.8551C90.7821 17.8372 90.5456 17.8285 90.309 17.8291C85.831 17.8291 82.203 21.4601 82.203 25.9421C82.203 30.4241 85.831 34.0551 90.309 34.0551C90.519 34.0551 90.807 34.0421 91.019 34.0291C86.841 33.7031 83.545 30.2061 83.545 25.9421Z" fill="#25F4EE"/>
<path d="M92.858 17.8301C92.641 17.8301 92.353 17.8421 92.143 17.8551C94.1766 18.0168 96.0746 18.9391 97.4585 20.4379C98.8424 21.9367 99.6106 23.9021 99.61 25.9421C99.6106 27.9821 98.8424 29.9475 97.4585 31.4463C96.0746 32.9451 94.1766 33.8674 92.143 34.0291C92.353 34.0491 92.641 34.0551 92.858 34.0551C97.336 34.0551 100.964 30.4241 100.964 25.9421C100.964 21.4601 97.336 17.8301 92.858 17.8301Z" fill="#FE2C55"/>
<path d="M91.58 29.8871C91.0622 29.8871 90.5494 29.785 90.0711 29.5867C89.5927 29.3884 89.1582 29.0977 88.7922 28.7313C88.4263 28.3649 88.1362 27.93 87.9385 27.4514C87.7408 26.9728 87.6393 26.4599 87.64 25.9421C87.64 24.8969 88.0552 23.8945 88.7943 23.1554C89.5334 22.4163 90.5358 22.0011 91.581 22.0011C92.6262 22.0011 93.6286 22.4163 94.3677 23.1554C95.1068 23.8945 95.522 24.8969 95.522 25.9421C95.522 28.1221 93.751 29.8871 91.58 29.8871ZM91.581 17.8291C87.104 17.8291 83.476 21.4601 83.476 25.9421C83.476 30.4241 87.104 34.0551 91.582 34.0551C96.06 34.0551 99.688 30.4241 99.688 25.9421C99.688 21.4601 96.058 17.8291 91.581 17.8291Z" fill="white"/>
</g>
<defs>
<clipPath id="clip0_2_13378">
<rect width="118" height="42" fill="white"/>
</clipPath>
</defs>
</svg>
